<mxfile host="app.diagrams.net" modified="2022-10-16T15:07:19.284Z" agent="5.0 (Windows NT 10.0; Win64; x64) AppleWebKit/537.36 (KHTML, like Gecko) Chrome/103.0.0.0 Safari/537.36" etag="iiKkoXxLKZjNImQqRuli" version="20.4.1" type="github">
  <diagram id="07fea595-8f29-1299-0266-81d95cde20df" name="Page-1">
    <mxGraphModel dx="2031" dy="1089" grid="1" gridSize="10" guides="1" tooltips="1" connect="1" arrows="1" fold="1" page="1" pageScale="1" pageWidth="4681" pageHeight="3300" background="none" math="0" shadow="0">
      <root>
        <mxCell id="0" />
        <mxCell id="1" parent="0" />
        <mxCell id="723" value="&lt;font style=&quot;font-size: 16px;&quot; color=&quot;#ffffff&quot;&gt;A&amp;lt;ANY()&lt;br&gt;的查询结果的可取范围&lt;/font&gt;" style="whiteSpace=wrap;fillColor=#12AAB5;gradientColor=none;gradientDirection=east;strokeColor=none;html=1;fontColor=#23445d;" parent="1" vertex="1">
          <mxGeometry x="253.75" y="324.5" width="72.5" height="336.5" as="geometry" />
        </mxCell>
        <mxCell id="727" value="" style="edgeStyle=none;html=1;fontColor=#000000;strokeWidth=3;strokeColor=#000000;" parent="1" edge="1">
          <mxGeometry width="100" height="100" relative="1" as="geometry">
            <mxPoint x="190" y="659" as="sourcePoint" />
            <mxPoint x="190" y="179" as="targetPoint" />
          </mxGeometry>
        </mxCell>
        <mxCell id="730" value="&lt;font style=&quot;font-size: 16px;&quot; color=&quot;#ffffff&quot;&gt;子查询查到的 数据范围&lt;/font&gt;" style="whiteSpace=wrap;fillColor=#F08705;gradientColor=none;gradientDirection=east;strokeColor=none;html=1;fontColor=#23445d;" parent="1" vertex="1">
          <mxGeometry x="382.5" y="324.5" width="75" height="250" as="geometry" />
        </mxCell>
        <mxCell id="734" value="" style="edgeStyle=none;html=1;fontColor=#000000;strokeWidth=3;strokeColor=#000000;" parent="1" edge="1">
          <mxGeometry width="100" height="100" relative="1" as="geometry">
            <mxPoint x="190" y="659" as="sourcePoint" />
            <mxPoint x="642.5" y="659.5" as="targetPoint" />
          </mxGeometry>
        </mxCell>
        <mxCell id="735" value="Parameter x" style="text;spacingTop=-5;html=1;fontSize=18;fontStyle=0;points=[];strokeColor=none;" parent="1" vertex="1">
          <mxGeometry x="662.5" y="647" width="80" height="20" as="geometry" />
        </mxCell>
        <mxCell id="736" value="x1" style="text;spacingTop=-5;align=center;verticalAlign=middle;fontStyle=0;html=1;fontSize=18;points=[];strokeColor=none;" parent="1" vertex="1">
          <mxGeometry x="230" y="661" width="120" height="30" as="geometry" />
        </mxCell>
        <mxCell id="737" value="x2" style="text;spacingTop=-5;align=center;verticalAlign=middle;fontStyle=0;html=1;fontSize=18;points=[];strokeColor=none;" parent="1" vertex="1">
          <mxGeometry x="372.5" y="661" width="120" height="30" as="geometry" />
        </mxCell>
        <mxCell id="745" value="Parameter y" style="text;spacingTop=-5;html=1;fontSize=18;fontStyle=0;points=[]" parent="1" vertex="1">
          <mxGeometry x="150" y="150" width="80" height="20" as="geometry" />
        </mxCell>
        <mxCell id="LFTU9TtOahAmm-CL0Xfp-753" value="" style="endArrow=none;dashed=1;html=1;dashPattern=1 3;strokeWidth=2;rounded=0;fontColor=#FFFFFF;" edge="1" parent="1">
          <mxGeometry width="50" height="50" relative="1" as="geometry">
            <mxPoint x="192.5" y="324.5" as="sourcePoint" />
            <mxPoint x="522.5" y="324.5" as="targetPoint" />
          </mxGeometry>
        </mxCell>
        <mxCell id="LFTU9TtOahAmm-CL0Xfp-754" value="&lt;font style=&quot;font-size: 16px;&quot; color=&quot;#ffffff&quot;&gt;A&amp;gt;ANY()&lt;br&gt;的查询结果的可取范围&lt;/font&gt;" style="whiteSpace=wrap;fillColor=#12AAB5;gradientColor=none;gradientDirection=east;strokeColor=none;html=1;fontColor=#23445d;" vertex="1" parent="1">
          <mxGeometry x="253.75" y="1050" width="72.5" height="220" as="geometry" />
        </mxCell>
        <mxCell id="LFTU9TtOahAmm-CL0Xfp-755" value="" style="edgeStyle=none;html=1;fontColor=#000000;strokeWidth=3;strokeColor=#000000;" edge="1" parent="1">
          <mxGeometry width="100" height="100" relative="1" as="geometry">
            <mxPoint x="190" y="1309" as="sourcePoint" />
            <mxPoint x="190" y="829" as="targetPoint" />
          </mxGeometry>
        </mxCell>
        <mxCell id="LFTU9TtOahAmm-CL0Xfp-756" value="&lt;font style=&quot;font-size: 16px;&quot; color=&quot;#ffffff&quot;&gt;子查询查到的 数据范围&lt;/font&gt;" style="whiteSpace=wrap;fillColor=#F08705;gradientColor=none;gradientDirection=east;strokeColor=none;html=1;fontColor=#23445d;" vertex="1" parent="1">
          <mxGeometry x="382.5" y="1170" width="75" height="100" as="geometry" />
        </mxCell>
        <mxCell id="LFTU9TtOahAmm-CL0Xfp-757" value="" style="edgeStyle=none;html=1;fontColor=#000000;strokeWidth=3;strokeColor=#000000;" edge="1" parent="1">
          <mxGeometry width="100" height="100" relative="1" as="geometry">
            <mxPoint x="190" y="1309" as="sourcePoint" />
            <mxPoint x="642.5" y="1309.5" as="targetPoint" />
          </mxGeometry>
        </mxCell>
        <mxCell id="LFTU9TtOahAmm-CL0Xfp-758" value="Parameter x" style="text;spacingTop=-5;html=1;fontSize=18;fontStyle=0;points=[];strokeColor=none;" vertex="1" parent="1">
          <mxGeometry x="662.5" y="1297" width="80" height="20" as="geometry" />
        </mxCell>
        <mxCell id="LFTU9TtOahAmm-CL0Xfp-759" value="x1" style="text;spacingTop=-5;align=center;verticalAlign=middle;fontStyle=0;html=1;fontSize=18;points=[];strokeColor=none;" vertex="1" parent="1">
          <mxGeometry x="230" y="1311" width="120" height="30" as="geometry" />
        </mxCell>
        <mxCell id="LFTU9TtOahAmm-CL0Xfp-760" value="x2" style="text;spacingTop=-5;align=center;verticalAlign=middle;fontStyle=0;html=1;fontSize=18;points=[];strokeColor=none;" vertex="1" parent="1">
          <mxGeometry x="372.5" y="1311" width="120" height="30" as="geometry" />
        </mxCell>
        <mxCell id="LFTU9TtOahAmm-CL0Xfp-761" value="Parameter y" style="text;spacingTop=-5;html=1;fontSize=18;fontStyle=0;points=[]" vertex="1" parent="1">
          <mxGeometry x="150" y="800" width="80" height="20" as="geometry" />
        </mxCell>
        <mxCell id="LFTU9TtOahAmm-CL0Xfp-763" value="" style="endArrow=none;dashed=1;html=1;dashPattern=1 3;strokeWidth=2;rounded=0;fontColor=#FFFFFF;" edge="1" parent="1">
          <mxGeometry width="50" height="50" relative="1" as="geometry">
            <mxPoint x="190" y="1268.5700000000002" as="sourcePoint" />
            <mxPoint x="520" y="1268.5700000000002" as="targetPoint" />
          </mxGeometry>
        </mxCell>
        <mxCell id="LFTU9TtOahAmm-CL0Xfp-764" value="&lt;font size=&quot;1&quot; style=&quot;&quot;&gt;&lt;b style=&quot;font-size: 20px;&quot;&gt;...&lt;/b&gt;&lt;/font&gt;" style="whiteSpace=wrap;fillColor=#CCFFFF;gradientColor=none;gradientDirection=east;strokeColor=none;html=1;fontColor=#23445d;" vertex="1" parent="1">
          <mxGeometry x="253.75" y="970" width="72.5" height="80" as="geometry" />
        </mxCell>
        <mxCell id="LFTU9TtOahAmm-CL0Xfp-766" value="&lt;font color=&quot;#ffffff&quot;&gt;&lt;span style=&quot;font-size: 16px;&quot;&gt;上不封顶&lt;/span&gt;&lt;/font&gt;" style="whiteSpace=wrap;fillColor=#12AAB5;gradientColor=none;gradientDirection=east;strokeColor=none;html=1;fontColor=#23445d;" vertex="1" parent="1">
          <mxGeometry x="253.75" y="880" width="72.5" height="92.5" as="geometry" />
        </mxCell>
        <mxCell id="LFTU9TtOahAmm-CL0Xfp-767" value="&lt;font style=&quot;font-size: 16px;&quot; color=&quot;#ffffff&quot;&gt;A&amp;lt;ALL()&lt;br&gt;的查询结果的可取范围&lt;/font&gt;" style="whiteSpace=wrap;fillColor=#12AAB5;gradientColor=none;gradientDirection=east;strokeColor=none;html=1;fontColor=#23445d;" vertex="1" parent="1">
          <mxGeometry x="996.25" y="374.5" width="72.5" height="286.5" as="geometry" />
        </mxCell>
        <mxCell id="LFTU9TtOahAmm-CL0Xfp-768" value="" style="edgeStyle=none;html=1;fontColor=#000000;strokeWidth=3;strokeColor=#000000;" edge="1" parent="1">
          <mxGeometry width="100" height="100" relative="1" as="geometry">
            <mxPoint x="932.5" y="659" as="sourcePoint" />
            <mxPoint x="932.5" y="179" as="targetPoint" />
          </mxGeometry>
        </mxCell>
        <mxCell id="LFTU9TtOahAmm-CL0Xfp-769" value="&lt;font style=&quot;font-size: 16px;&quot; color=&quot;#ffffff&quot;&gt;子查询查到的 数据范围&lt;/font&gt;" style="whiteSpace=wrap;fillColor=#F08705;gradientColor=none;gradientDirection=east;strokeColor=none;html=1;fontColor=#23445d;" vertex="1" parent="1">
          <mxGeometry x="1137.5" y="244.5" width="75" height="130" as="geometry" />
        </mxCell>
        <mxCell id="LFTU9TtOahAmm-CL0Xfp-770" value="" style="edgeStyle=none;html=1;fontColor=#000000;strokeWidth=3;strokeColor=#000000;" edge="1" parent="1">
          <mxGeometry width="100" height="100" relative="1" as="geometry">
            <mxPoint x="932.5" y="659" as="sourcePoint" />
            <mxPoint x="1385" y="659.5" as="targetPoint" />
          </mxGeometry>
        </mxCell>
        <mxCell id="LFTU9TtOahAmm-CL0Xfp-771" value="Parameter x" style="text;spacingTop=-5;html=1;fontSize=18;fontStyle=0;points=[];strokeColor=none;" vertex="1" parent="1">
          <mxGeometry x="1405" y="647" width="80" height="20" as="geometry" />
        </mxCell>
        <mxCell id="LFTU9TtOahAmm-CL0Xfp-772" value="x1" style="text;spacingTop=-5;align=center;verticalAlign=middle;fontStyle=0;html=1;fontSize=18;points=[];strokeColor=none;" vertex="1" parent="1">
          <mxGeometry x="972.5" y="661" width="120" height="30" as="geometry" />
        </mxCell>
        <mxCell id="LFTU9TtOahAmm-CL0Xfp-773" value="x2" style="text;spacingTop=-5;align=center;verticalAlign=middle;fontStyle=0;html=1;fontSize=18;points=[];strokeColor=none;" vertex="1" parent="1">
          <mxGeometry x="1115" y="661" width="120" height="30" as="geometry" />
        </mxCell>
        <mxCell id="LFTU9TtOahAmm-CL0Xfp-774" value="Parameter y" style="text;spacingTop=-5;html=1;fontSize=18;fontStyle=0;points=[]" vertex="1" parent="1">
          <mxGeometry x="892.5" y="150" width="80" height="20" as="geometry" />
        </mxCell>
        <mxCell id="LFTU9TtOahAmm-CL0Xfp-775" value="" style="endArrow=none;dashed=1;html=1;dashPattern=1 3;strokeWidth=2;rounded=0;fontColor=#FFFFFF;" edge="1" parent="1">
          <mxGeometry width="50" height="50" relative="1" as="geometry">
            <mxPoint x="932.5" y="374.5" as="sourcePoint" />
            <mxPoint x="1262.5" y="374.5" as="targetPoint" />
          </mxGeometry>
        </mxCell>
        <mxCell id="LFTU9TtOahAmm-CL0Xfp-776" value="&lt;font style=&quot;font-size: 16px;&quot; color=&quot;#ffffff&quot;&gt;A&amp;gt;ALL()&lt;br&gt;的查询结果的可取范围&lt;/font&gt;" style="whiteSpace=wrap;fillColor=#12AAB5;gradientColor=none;gradientDirection=east;strokeColor=none;html=1;fontColor=#23445d;" vertex="1" parent="1">
          <mxGeometry x="996.25" y="1050" width="72.5" height="160" as="geometry" />
        </mxCell>
        <mxCell id="LFTU9TtOahAmm-CL0Xfp-777" value="" style="edgeStyle=none;html=1;fontColor=#000000;strokeWidth=3;strokeColor=#000000;" edge="1" parent="1">
          <mxGeometry width="100" height="100" relative="1" as="geometry">
            <mxPoint x="932.5" y="1309" as="sourcePoint" />
            <mxPoint x="932.5" y="829" as="targetPoint" />
          </mxGeometry>
        </mxCell>
        <mxCell id="LFTU9TtOahAmm-CL0Xfp-778" value="&lt;font style=&quot;font-size: 16px;&quot; color=&quot;#ffffff&quot;&gt;子查询查到的 数据范围&lt;/font&gt;" style="whiteSpace=wrap;fillColor=#F08705;gradientColor=none;gradientDirection=east;strokeColor=none;html=1;fontColor=#23445d;" vertex="1" parent="1">
          <mxGeometry x="1137.5" y="1210" width="75" height="100" as="geometry" />
        </mxCell>
        <mxCell id="LFTU9TtOahAmm-CL0Xfp-779" value="" style="edgeStyle=none;html=1;fontColor=#000000;strokeWidth=3;strokeColor=#000000;" edge="1" parent="1">
          <mxGeometry width="100" height="100" relative="1" as="geometry">
            <mxPoint x="932.5" y="1309" as="sourcePoint" />
            <mxPoint x="1385" y="1309.5" as="targetPoint" />
          </mxGeometry>
        </mxCell>
        <mxCell id="LFTU9TtOahAmm-CL0Xfp-780" value="Parameter x" style="text;spacingTop=-5;html=1;fontSize=18;fontStyle=0;points=[];strokeColor=none;" vertex="1" parent="1">
          <mxGeometry x="1405" y="1297" width="80" height="20" as="geometry" />
        </mxCell>
        <mxCell id="LFTU9TtOahAmm-CL0Xfp-781" value="x1" style="text;spacingTop=-5;align=center;verticalAlign=middle;fontStyle=0;html=1;fontSize=18;points=[];strokeColor=none;" vertex="1" parent="1">
          <mxGeometry x="972.5" y="1311" width="120" height="30" as="geometry" />
        </mxCell>
        <mxCell id="LFTU9TtOahAmm-CL0Xfp-782" value="x2" style="text;spacingTop=-5;align=center;verticalAlign=middle;fontStyle=0;html=1;fontSize=18;points=[];strokeColor=none;" vertex="1" parent="1">
          <mxGeometry x="1115" y="1311" width="120" height="30" as="geometry" />
        </mxCell>
        <mxCell id="LFTU9TtOahAmm-CL0Xfp-783" value="Parameter y" style="text;spacingTop=-5;html=1;fontSize=18;fontStyle=0;points=[]" vertex="1" parent="1">
          <mxGeometry x="892.5" y="800" width="80" height="20" as="geometry" />
        </mxCell>
        <mxCell id="LFTU9TtOahAmm-CL0Xfp-784" value="" style="endArrow=none;dashed=1;html=1;dashPattern=1 3;strokeWidth=2;rounded=0;fontColor=#FFFFFF;" edge="1" parent="1">
          <mxGeometry width="50" height="50" relative="1" as="geometry">
            <mxPoint x="932.5" y="1210.0000000000002" as="sourcePoint" />
            <mxPoint x="1262.5" y="1210.0000000000002" as="targetPoint" />
          </mxGeometry>
        </mxCell>
        <mxCell id="LFTU9TtOahAmm-CL0Xfp-785" value="&lt;font size=&quot;1&quot; style=&quot;&quot;&gt;&lt;b style=&quot;font-size: 20px;&quot;&gt;...&lt;/b&gt;&lt;/font&gt;" style="whiteSpace=wrap;fillColor=#CCFFFF;gradientColor=none;gradientDirection=east;strokeColor=none;html=1;fontColor=#23445d;" vertex="1" parent="1">
          <mxGeometry x="996.25" y="970" width="72.5" height="80" as="geometry" />
        </mxCell>
        <mxCell id="LFTU9TtOahAmm-CL0Xfp-786" value="&lt;font color=&quot;#ffffff&quot;&gt;&lt;span style=&quot;font-size: 16px;&quot;&gt;上不封顶&lt;/span&gt;&lt;/font&gt;" style="whiteSpace=wrap;fillColor=#12AAB5;gradientColor=none;gradientDirection=east;strokeColor=none;html=1;fontColor=#23445d;" vertex="1" parent="1">
          <mxGeometry x="996.25" y="880" width="72.5" height="92.5" as="geometry" />
        </mxCell>
      </root>
    </mxGraphModel>
  </diagram>
</mxfile>
